<svg width="30" height="24" viewBox="0 0 30 24" fill="none" xmlns="http://www.w3.org/2000/svg">
<path d="M27.075 4.391H24.54L21.83 0.326C21.7632 0.225733 21.6726 0.143515 21.5664 0.0866461C21.4601 0.0297768 21.3415 1.44611e-05 21.221 0H12.44C12.3195 1.44611e-05 12.2009 0.0297768 12.0946 0.0866461C11.9884 0.143515 11.8978 0.225733 11.831 0.326L9.121 4.39H2.2C1.61652 4.39 1.05695 4.62178 0.644365 5.03436C0.231785 5.44694 0 6.00652 0 6.59V21.221C0 21.8045 0.231785 22.3641 0.644365 22.7766C1.05695 23.1892 1.61652 23.421 2.2 23.421H27.08C27.6635 23.421 28.2231 23.1892 28.6356 22.7766C29.0482 22.3641 29.28 21.8045 29.28 21.221V6.586C29.28 6.00252 29.0482 5.44295 28.6356 5.03036C28.2231 4.61778 27.6635 4.386 27.08 4.386L27.075 4.391ZM27.807 21.222C27.807 21.4161 27.7299 21.6023 27.5926 21.7396C27.4553 21.8769 27.2691 21.954 27.075 21.954H2.2C2.00586 21.954 1.81967 21.8769 1.6824 21.7396C1.54512 21.6023 1.468 21.4161 1.468 21.222V6.586C1.468 6.39186 1.54512 6.20567 1.6824 6.0684C1.81967 5.93112 2.00586 5.854 2.2 5.854H9.518C9.6385 5.85399 9.75714 5.82422 9.86337 5.76735C9.96961 5.71048 10.0602 5.62827 10.127 5.528L12.837 1.464H20.837L23.547 5.528C23.6138 5.62827 23.7044 5.71048 23.8106 5.76735C23.9169 5.82422 24.0355 5.85399 24.156 5.854H27.083C27.2771 5.854 27.4633 5.93112 27.6006 6.0684C27.7379 6.20567 27.815 6.39186 27.815 6.586L27.807 21.222Z" fill="#29292D"/>
<path d="M16.83 8.78101C15.817 8.78101 14.8267 9.08141 13.9844 9.64422C13.1421 10.207 12.4856 11.007 12.0979 11.9429C11.7102 12.8788 11.6088 13.9087 11.8064 14.9023C12.0041 15.8958 12.4919 16.8085 13.2082 17.5248C13.9245 18.2411 14.8372 18.729 15.8308 18.9266C16.8243 19.1242 17.8542 19.0228 18.7901 18.6351C19.726 18.2474 20.526 17.5909 21.0888 16.7486C21.6516 15.9063 21.952 14.916 21.952 13.903C21.952 12.5446 21.4124 11.2418 20.4518 10.2812C19.4912 9.32064 18.1884 8.78101 16.83 8.78101ZM16.83 17.562C16.1063 17.562 15.3989 17.3474 14.7972 16.9454C14.1955 16.5433 13.7265 15.9718 13.4495 15.3032C13.1726 14.6346 13.1001 13.8989 13.2413 13.1892C13.3825 12.4794 13.731 11.8274 14.2427 11.3157C14.7544 10.804 15.4064 10.4555 16.1162 10.3143C16.826 10.1731 17.5617 10.2456 18.2302 10.5225C18.8988 10.7995 19.4703 11.2685 19.8724 11.8702C20.2744 12.4719 20.489 13.1793 20.489 13.903C20.489 14.8734 20.1035 15.8041 19.4173 16.4903C18.7311 17.1765 17.8004 17.562 16.83 17.562Z" fill="#29292D"/>
<path d="M6.59111 8.78101H5.12311C4.92898 8.78101 4.74279 8.85813 4.60551 8.9954C4.46823 9.13268 4.39111 9.31887 4.39111 9.51301C4.39111 9.70714 4.46823 9.89333 4.60551 10.0306C4.74279 10.1679 4.92898 10.245 5.12311 10.245H6.59111C6.78525 10.245 6.97144 10.1679 7.10872 10.0306C7.24599 9.89333 7.32311 9.70714 7.32311 9.51301C7.32311 9.31887 7.24599 9.13268 7.10872 8.9954C6.97144 8.85813 6.78525 8.78101 6.59111 8.78101Z" fill="#29292D"/>
</svg>
