<svg width="17" height="17" viewBox="0 0 17 17" fill="none" xmlns="http://www.w3.org/2000/svg">
<path d="M8.49994 16.562C8.4665 16.5626 8.43307 16.5606 8.39994 16.556C8.23174 16.5305 8.07912 16.4431 7.97194 16.311L5.32994 13.311H0.688942C0.502036 13.3066 0.324529 13.2281 0.195363 13.093C0.066196 12.9578 -0.00408342 12.7769 -5.80209e-05 12.59V1.28401C-0.00435215 1.09692 0.0658076 0.915786 0.195003 0.780403C0.324198 0.645019 0.501859 0.566469 0.688942 0.562012H16.3109C16.498 0.566469 16.6757 0.645019 16.8049 0.780403C16.9341 0.915786 17.0042 1.09692 16.9999 1.28401V12.591C17.0042 12.7781 16.9341 12.9592 16.8049 13.0946C16.6757 13.23 16.498 13.3086 16.3109 13.313H11.6649L9.00694 16.33C8.94375 16.4025 8.86585 16.4606 8.77843 16.5006C8.69101 16.5406 8.59608 16.5616 8.49994 16.562ZM1.37794 11.868H5.63694C5.73307 11.8685 5.82798 11.8895 5.91539 11.9295C6.0028 11.9695 6.08071 12.0276 6.14394 12.1L8.49994 14.777L10.8559 12.101C10.9192 12.0286 10.9971 11.9705 11.0845 11.9305C11.1719 11.8905 11.2668 11.8695 11.3629 11.869H15.6219V2.00501H1.37794V11.868Z" fill="white"/>
<path d="M5.55488 7.76001C5.96799 7.76001 6.30288 7.42557 6.30288 7.01301C6.30288 6.60045 5.96799 6.26601 5.55488 6.26601C5.14178 6.26601 4.80688 6.60045 4.80688 7.01301C4.80688 7.42557 5.14178 7.76001 5.55488 7.76001Z" fill="white"/>
<path d="M8.49995 7.76001C8.91306 7.76001 9.24795 7.42557 9.24795 7.01301C9.24795 6.60045 8.91306 6.26601 8.49995 6.26601C8.08684 6.26601 7.75195 6.60045 7.75195 7.01301C7.75195 7.42557 8.08684 7.76001 8.49995 7.76001Z" fill="white"/>
<path d="M11.444 7.76001C11.8572 7.76001 12.192 7.42557 12.192 7.01301C12.192 6.60045 11.8572 6.26601 11.444 6.26601C11.0309 6.26601 10.696 6.60045 10.696 7.01301C10.696 7.42557 11.0309 7.76001 11.444 7.76001Z" fill="white"/>
</svg>
