<svg width="17" height="16" viewBox="0 0 17 16" fill="none" xmlns="http://www.w3.org/2000/svg">
<path d="M8.49994 16C8.4665 16.0006 8.43307 15.9986 8.39994 15.994C8.23174 15.9685 8.07912 15.8811 7.97194 15.749L5.32994 12.749H0.688942C0.502036 12.7445 0.324529 12.6661 0.195363 12.531C0.066196 12.3958 -0.00408342 12.2149 -5.80209e-05 12.028V0.722C-0.00435215 0.534913 0.0658076 0.353774 0.195003 0.218391C0.324198 0.0830077 0.501859 0.00445684 0.688942 0H16.3109C16.498 0.00445684 16.6757 0.0830077 16.8049 0.218391C16.9341 0.353774 17.0042 0.534913 16.9999 0.722V12.029C17.0042 12.2161 16.9341 12.3972 16.8049 12.5326C16.6757 12.668 16.498 12.7465 16.3109 12.751H11.6649L9.00694 15.768C8.94375 15.8405 8.86585 15.8986 8.77843 15.9386C8.69101 15.9786 8.59608 15.9995 8.49994 16ZM1.37794 11.306H5.63694C5.73307 11.3065 5.82798 11.3275 5.91539 11.3675C6.0028 11.4075 6.08071 11.4656 6.14394 11.538L8.49994 14.215L10.8559 11.539C10.9192 11.4666 10.9971 11.4085 11.0845 11.3685C11.1719 11.3285 11.2668 11.3075 11.3629 11.307H15.6219V1.443H1.37794V11.306Z" fill="#0F393A"/>
<path d="M5.55488 7.19801C5.96799 7.19801 6.30288 6.86357 6.30288 6.45101C6.30288 6.03845 5.96799 5.70401 5.55488 5.70401C5.14178 5.70401 4.80688 6.03845 4.80688 6.45101C4.80688 6.86357 5.14178 7.19801 5.55488 7.19801Z" fill="#0F393A"/>
<path d="M8.49995 7.19801C8.91306 7.19801 9.24795 6.86357 9.24795 6.45101C9.24795 6.03845 8.91306 5.70401 8.49995 5.70401C8.08684 5.70401 7.75195 6.03845 7.75195 6.45101C7.75195 6.86357 8.08684 7.19801 8.49995 7.19801Z" fill="#0F393A"/>
<path d="M11.444 7.19801C11.8572 7.19801 12.192 6.86357 12.192 6.45101C12.192 6.03845 11.8572 5.70401 11.444 5.70401C11.0309 5.70401 10.696 6.03845 10.696 6.45101C10.696 6.86357 11.0309 7.19801 11.444 7.19801Z" fill="#0F393A"/>
</svg>
